<svg xmlns="http://www.w3.org/2000/svg" viewBox="0 0 205.43 56.81">
    <defs>
        <style>
        .cls-1 {
            fill: #000;
        }

        .cls-2,
        .cls-4 {
            fill: #000;
        }

        .cls-3 {
            fill: #000;
        }

        .cls-4 {
            stroke: #000;
            stroke-miterlimit: 10;
        }
        </style>
    </defs>
    <g id="Layer_2" data-name="Layer 2">
        <g id="Layer_1-2" data-name="Layer 1">
            <path class="cls-1" d="M58.85,5.5q-4.2-4.44-11.91-4.44A17.55,17.55,0,0,0,34.06,6.2,17.16,17.16,0,0,0,29.14,16H18.36a1.13,1.13,0,0,1-1.05-.73L15.5,10.51a1.11,1.11,0,0,0-1.05-.73H2.19a1.14,1.14,0,0,0-1.14,1.13v1.82a1.14,1.14,0,0,0,1.14,1.14h10a1.14,1.14,0,0,1,1,.69l2.28,5.51a1.11,1.11,0,0,0,1.05.7H28.91c.22,5.15,1.78,9.21,4.71,12.15q4.76,4.76,13.06,4.76T59.9,34.59a.83.83,0,0,0,.41-.73V30.65a.85.85,0,0,0-.85-.85.92.92,0,0,0-.43.11A20.57,20.57,0,0,1,48.13,33q-5.9,0-9.27-3.15a11.86,11.86,0,0,1-3.48-8.1.88.88,0,0,1,.81-.92h26a.86.86,0,0,0,.87-.86V17.87C63.05,12.62,61.67,8.41,58.85,5.5ZM55.7,16H36.5a.85.85,0,0,1-.86-.86.62.62,0,0,1,0-.19,12.11,12.11,0,0,1,3.63-6.38,10.84,10.84,0,0,1,7.55-2.83A9.47,9.47,0,0,1,54,8.47a10.14,10.14,0,0,1,2.59,6.65.84.84,0,0,1-.79.9H55.7Z" />
            <path class="cls-1" d="M46.68,38.73c-5.8,0-10.45-1.7-13.81-5.07-2.9-2.91-4.56-6.89-4.95-11.84H16.6a2.2,2.2,0,0,1-2-1.37L12.3,15l-10.11,0A2.19,2.19,0,0,1,0,12.73V10.91A2.19,2.19,0,0,1,2.19,8.73H14.45a2.17,2.17,0,0,1,2,1.42l1.8,4.76,10,.06a18.35,18.35,0,0,1,5.07-9.52A18.67,18.67,0,0,1,47,0h0c5.38,0,9.65,1.6,12.64,4.77s4.49,7.48,4.52,13.09v2.07a1.91,1.91,0,0,1-1.92,1.91H36.44a10.75,10.75,0,0,0,3.16,7.23c2,1.89,4.94,2.84,8.62,2.84A19.55,19.55,0,0,0,58.48,29a2,2,0,0,1,1-.27,1.9,1.9,0,0,1,1.89,1.9v3.21a1.9,1.9,0,0,1-.91,1.63C57,37.64,52.4,38.73,46.68,38.73ZM12.23,12.82a2.17,2.17,0,0,1,2,1.33l2.28,5.52,13.4,0,0,1c.21,4.87,1.69,8.73,4.4,11.45,3,3,7.1,4.45,12.32,4.45s9.5-1,12.58-2.88V31a21.49,21.49,0,0,1-11.13,3c-4.18,0-7.55-1.15-10-3.43a12.85,12.85,0,0,1-3.82-8.85,1.91,1.91,0,0,1,1.8-2H62V17.87c0-5.05-1.35-9-3.93-11.64h0C55.5,3.49,51.76,2.11,46.94,2.11A16.62,16.62,0,0,0,34.8,6.94a16.15,16.15,0,0,0-4.62,9.23l-.12.9H18.36a2.16,2.16,0,0,1-2-1.41l-1.81-4.77L2.19,10.83a.09.09,0,0,0-.09.08v1.82a.09.09,0,0,0,.09.09h10Zm47,21Zm.08-.16ZM36.43,21.65v0Zm19.32-4.58H36.5a1.91,1.91,0,0,1-1.91-1.91,2,2,0,0,1,0-.43,13.09,13.09,0,0,1,3.95-6.91A11.8,11.8,0,0,1,46.86,4.7a10.48,10.48,0,0,1,7.89,3,11.17,11.17,0,0,1,2.91,7.38,1.89,1.89,0,0,1-1.78,2Zm-.19-1.91v0ZM36.73,15H55.56a9.09,9.09,0,0,0-2.33-5.79A8.39,8.39,0,0,0,46.9,6.8,9.79,9.79,0,0,0,40,9.36,11,11,0,0,0,36.73,15Z" />
            <path class="cls-2" d="M17.24,24.71l7.2,20.74a1.6,1.6,0,0,0,1.5,1H65.67a1.58,1.58,0,0,0,1.58-1.58V36.66a1.59,1.59,0,0,1,1.57-1.59h2.11a1.6,1.6,0,0,1,1.58,1.59v9.69a4.85,4.85,0,0,1-4.84,4.85H24.36a4.51,4.51,0,0,1-4.26-3L12.47,25.74a1.58,1.58,0,0,1,1-2,1.44,1.44,0,0,1,.51-.09h1.79A1.63,1.63,0,0,1,17.24,24.71Z" />
            <path class="cls-2" d="M24.36,52.25a5.56,5.56,0,0,1-5.25-3.75L11.48,26.08a2.64,2.64,0,0,1,1.64-3.35,2.69,2.69,0,0,1,.84-.14h1.8a2.7,2.7,0,0,1,2.47,1.77h0L25.44,45.1a.52.52,0,0,0,.49.35H65.67a.53.53,0,0,0,.53-.53V36.66A2.65,2.65,0,0,1,68.82,34h2.11a2.66,2.66,0,0,1,2.63,2.63v9.7a5.9,5.9,0,0,1-5.89,5.9ZM15.73,24.69H14a.51.51,0,0,0-.17,0,.53.53,0,0,0-.33.68L21.1,47.82a3.45,3.45,0,0,0,3.26,2.32H67.67a3.79,3.79,0,0,0,3.79-3.79V36.66a.54.54,0,0,0-.54-.53h-2.1a.53.53,0,0,0-.52.53v8.26a2.63,2.63,0,0,1-2.63,2.63H25.93a2.63,2.63,0,0,1-2.48-1.75L16.24,25.06A.57.57,0,0,0,15.73,24.69Z" />
            <circle class="cls-2" cx="35.65" cy="52.34" r="4.47" />
            <circle class="cls-3" cx="35.65" cy="52.34" r="2.46" />
            <circle class="cls-2" cx="54.62" cy="52.34" r="4.47" />
            <circle class="cls-3" cx="54.62" cy="52.34" r="2.46" />
            <path class="cls-1" d="M106.87,36.43h-17q.42,5.7,7.16,5.69a14,14,0,0,0,7.57-2v5.81a19.83,19.83,0,0,1-9.4,1.93q-6.3,0-9.81-3.5t-3.49-9.77q0-6.49,3.77-10.3a12.6,12.6,0,0,1,9.27-3.79q5.72,0,8.84,3.39t3.15,9.2Zm-7.47-4.9c0-3.74-1.52-5.6-4.53-5.6a4.39,4.39,0,0,0-3.36,1.6,7.43,7.43,0,0,0-1.72,4Z" />
            <path class="cls-4" d="M137.92,45.66a21.43,21.43,0,0,1-10.09,2.1q-7.8,0-12.48-5t-4.69-13.13q0-8.76,5.26-14.17A17.86,17.86,0,0,1,129.29,10a21.23,21.23,0,0,1,8.63,1.54v4.56a17.38,17.38,0,0,0-8.66-2.22,13.27,13.27,0,0,0-10.2,4.2q-3.91,4.22-3.91,11.24,0,6.67,3.66,10.64a12.39,12.39,0,0,0,9.58,4,18,18,0,0,0,9.53-2.44Z" />
            <path class="cls-4" d="M163.48,47.19h-4.2v-4.1h-.11a8.77,8.77,0,0,1-8,4.69,8.56,8.56,0,0,1-6.1-2.1,7.19,7.19,0,0,1-2.12-5.42q0-7.36,8.61-8.52l7.83-1Q159.36,24,154,24a12.84,12.84,0,0,0-8.51,3.22V22.93a16.16,16.16,0,0,1,8.87-2.44q9.18,0,9.19,9.73ZM159.28,34l-6.31.86a10.32,10.32,0,0,0-4.38,1.44,4.2,4.2,0,0,0-1.46,3.65,4,4,0,0,0,1.36,3.15,5.22,5.22,0,0,0,3.63,1.21,6.75,6.75,0,0,0,5.14-2.17,7.82,7.82,0,0,0,2-5.52Z" />
            <path class="cls-4" d="M185,25.32a5.17,5.17,0,0,0-3.15-.84A5.33,5.33,0,0,0,177.33,27a11.73,11.73,0,0,0-1.83,6.89v13.3h-4.2V21.1h4.2v5.37h.11a9,9,0,0,1,2.72-4.29,6.17,6.17,0,0,1,4.11-1.54A6.55,6.55,0,0,1,185,21Z" />
            <path class="cls-4" d="M204.93,46.93a8,8,0,0,1-3.9.82q-6.87,0-6.85-7.64V24.66h-4.49V21.1h4.49V14.72l4.2-1.36v7.73h6.55v3.56h-6.58V39.36a6.16,6.16,0,0,0,.89,3.75,3.57,3.57,0,0,0,3,1.12,4.45,4.45,0,0,0,2.72-.86Z" />
        </g>
    </g>
</svg>