<svg xmlns="http://www.w3.org/2000/svg" viewBox="0 0 20.97 16.5"><defs><style>.cls-1,.cls-2{fill:none;stroke:#000;stroke-linecap:round;stroke-linejoin:round;}.cls-1{stroke-width:1.5px;}</style></defs><g id="Layer_2" data-name="Layer 2"><g id="Layer_1-2" data-name="Layer 1"><path class="cls-1" d="M6.75,14.25a1.5,1.5,0,0,1-3,0m3,0a1.5,1.5,0,0,0-3,0m3,0h6m-9,0H1.88A1.12,1.12,0,0,1,.75,13.13V9.75M18,14.25a1.5,1.5,0,0,1-3,0m3,0a1.5,1.5,0,0,0-3,0m3,0h1.13a1.07,1.07,0,0,0,1.09-1.12A18,18,0,0,0,17,3.93a2.06,2.06,0,0,0-1.58-.86H12.75M15,14.25H12.75m0-11.18V2.12a1.11,1.11,0,0,0-1-1.11,47.94,47.94,0,0,0-10,0,1.11,1.11,0,0,0-1,1.11V9.75m12-6.68v3.1m0,8.08V9.75m0,0H.75"/><line class="cls-1" x1="12.52" y1="6.17" x2="9.42" y2="6.17"/><polyline class="cls-2" points="9.88 4.56 8 6.13 9.88 7.77"/></g></g></svg>