<svg xmlns="http://www.w3.org/2000/svg" viewBox="0 0 68.32 87.19"><defs><style>.cls-1{fill:none;stroke:#fff;stroke-miterlimit:10;stroke-width:2.38px;}.cls-2{fill:#f24e29;}.cls-3{fill:#fff;}</style></defs><g id="Layer_2" data-name="Layer 2"><g id="Layer_1-2" data-name="Layer 1"><path class="cls-1" d="M30.2,21.94C26.66,26.64,8.3-3.4,2.42,9.74-.39,16,14.34,28.51,13.44,33.43"/><polygon class="cls-2" points="62.93 69.22 42.33 18.11 6.08 24.43 6.75 26.84 6.08 24.43 4.09 28.3 0 27.84 4.26 86.93 23.66 87.19 62.93 69.22"/><path class="cls-3" d="M13.88,80.68c-1.3-4.27-2.37-8.59-3.36-12.93s-1.87-8.68-2.7-13S6.25,46,5.62,41.56,4.42,32.75,4.09,28.3c1.3,4.27,2.37,8.59,3.36,12.92s1.87,8.69,2.7,13.05S11.71,63,12.34,67.41,13.55,76.22,13.88,80.68Z"/><path class="cls-3" d="M4.26,86.93a10.86,10.86,0,0,1,1.9-2.35,16,16,0,0,1,2.26-1.77A15.06,15.06,0,0,1,11,81.46a10.46,10.46,0,0,1,2.92-.78A10.08,10.08,0,0,1,12,83,16,16,0,0,1,9.72,84.8a16.31,16.31,0,0,1-2.55,1.35A10.64,10.64,0,0,1,4.26,86.93Z"/><path class="cls-3" d="M23.66,87.19a10.7,10.7,0,0,1-3-.85,17.49,17.49,0,0,1-2.59-1.41,17,17,0,0,1-2.3-1.84,10.54,10.54,0,0,1-1.93-2.41,10.6,10.6,0,0,1,3,.85,17.49,17.49,0,0,1,2.59,1.41,17.58,17.58,0,0,1,2.3,1.85A10.75,10.75,0,0,1,23.66,87.19Z"/><path class="cls-3" d="M6.08,24.43C8,29.53,9.73,34.69,11.36,39.87S14.52,50.26,16,55.49,18.87,66,20.16,71.25s2.51,10.58,3.5,15.94c-1.94-5.1-3.66-10.26-5.29-15.44s-3.16-10.4-4.65-15.62S10.86,45.65,9.58,40.37,7.07,29.79,6.08,24.43Z"/><path class="cls-3" d="M16.42,28a2,2,0,1,0,2.39,1.47A2,2,0,0,0,16.42,28Zm.69,2.92a1,1,0,1,1,.76-1.22A1,1,0,0,1,17.11,30.87Z"/><path class="cls-3" d="M36.44,24.48A2,2,0,1,0,38.83,26,2,2,0,0,0,36.44,24.48Zm.69,2.91a1,1,0,1,1,.76-1.22A1,1,0,0,1,37.13,27.39Z"/><path class="cls-1" d="M16.88,29.88c5.81.9-2-33.44,11.38-28.13,6.39,2.53,4.56,21.76,8.64,24.66"/><path class="cls-1" d="M55.33,71.09,54.21,71a27.51,27.51,0,0,1-5.46-1.16l-3.9-1.22c-4.4-1.35-5-1.52-5-3a2,2,0,0,1,2-2l4,.61a.1.1,0,0,0,.09,0s0,0,0,0A.09.09,0,0,0,46,64L35.45,53.49a2,2,0,0,1,0-2.86,2,2,0,0,1,2.85,0l4.63,4.63a.11.11,0,0,0,.15,0,.12.12,0,0,0,0-.16,2,2,0,0,1,2.86-2.86l1.4,1.4a.11.11,0,0,0,.15-.15,2,2,0,0,1,2.86-2.86l1.18,1.19a.11.11,0,0,0,.16-.16,2,2,0,0,1,2.86-2.86l3,3a28.23,28.23,0,0,1,5,6.78L64.38,62Z"/><path class="cls-1" d="M35.52,50.71a1.92,1.92,0,0,1,2.71,0l4.62,4.62a.21.21,0,0,0,.31,0,.22.22,0,0,0,0-.3,1.91,1.91,0,1,1,2.7-2.71l1.4,1.4a.22.22,0,0,0,.31-.31,1.91,1.91,0,1,1,2.7-2.7l1.19,1.18a.21.21,0,0,0,.31,0,.23.23,0,0,0,0-.31,1.91,1.91,0,0,1,0-2.7,1.94,1.94,0,0,1,1.36-.56,1.9,1.9,0,0,1,1.35.56l3,3a28,28,0,0,1,5,6.75L64.25,62l-9,9-1.07-.12a27.44,27.44,0,0,1-5.44-1.15c-1.55-.5-2.85-.9-3.9-1.22C40.4,67.11,40,67,40,65.6a1.9,1.9,0,0,1,.56-1.35,1.87,1.87,0,0,1,1.33-.56l4,.61a.22.22,0,0,0,.19-.06.21.21,0,0,0,0-.06.21.21,0,0,0,0-.25L35.52,53.41a1.92,1.92,0,0,1,0-2.7m-.15-.16a2.14,2.14,0,0,0,0,3L45.89,64.08l-4-.61a2.13,2.13,0,0,0-2.13,2.13c0,1.92,1,1.77,8.95,4.32a27.7,27.7,0,0,0,5.48,1.16l1.17.13,9.15-9.15-1.87-3.53a28.74,28.74,0,0,0-5-6.81l-3-3a2.1,2.1,0,0,0-1.5-.63,2.14,2.14,0,0,0-1.51,3.64l-1.18-1.18a2.12,2.12,0,0,0-1.51-.63,2.14,2.14,0,0,0-1.5,3.64L46,52.17a2.12,2.12,0,0,0-1.51-.63A2.14,2.14,0,0,0,43,55.18l-4.63-4.62a2.12,2.12,0,0,0-3,0Z"/><path class="cls-1" d="M59.15,73.42a1,1,0,0,1-1.4,0l-2.38-2.37,9-9,2.38,2.37a1,1,0,0,1,0,1.41Z"/><path class="cls-1" d="M64.36,62.22l2.3,2.29a.89.89,0,0,1,0,1.25l-7.59,7.59a.89.89,0,0,1-1.25,0l-2.29-2.3,8.83-8.83m0-.31-9.14,9.14,2.45,2.45a1.1,1.1,0,0,0,1.56,0l7.58-7.59a1.09,1.09,0,0,0,0-1.55l-2.45-2.45Z"/><path class="cls-1" d="M46.85,59h0a.22.22,0,0,1-.3,0l-3.68-3.68.31-.31,3.67,3.68A.21.21,0,0,1,46.85,59Z"/><path class="cls-1" d="M49.64,55.79h0a.23.23,0,0,1-.31,0l-2.07-2.07.31-.31,2.07,2.07A.23.23,0,0,1,49.64,55.79Z"/><path class="cls-1" d="M53.79,53.91h0a.21.21,0,0,1-.31,0l-2.07-2.07.31-.3,2.07,2.07A.22.22,0,0,1,53.79,53.91Z"/><polygon class="cls-1" points="33.37 48.9 26.81 45.51 29.99 42.33 33.37 48.9"/><polygon class="cls-1" points="41.08 48.9 44.46 42.33 47.65 45.51 41.08 48.9"/><polygon class="cls-1" points="33.37 56.6 29.99 63.17 26.81 59.99 33.37 56.6"/><polygon class="cls-1" points="37.23 46.82 34.98 39.78 39.48 39.78 37.23 46.82"/><polygon class="cls-1" points="31.29 52.75 24.26 55 24.26 50.5 31.29 52.75"/></g></g></svg>