<svg xmlns="http://www.w3.org/2000/svg" viewBox="0 0 699.35 307.69"><defs><style>.cls-1{font-size:175.38px;}.cls-1,.cls-4{fill:#f24e29;}.cls-1,.cls-2{font-family:MicrosoftNewTaiLue-Bold, Microsoft New Tai Lue;font-weight:700;}.cls-2{font-size:98.84px;}.cls-2,.cls-6{fill:#1f3b53;}.cls-3{fill:none;stroke-width:5.07px;}.cls-3,.cls-6{stroke:#1f3b53;stroke-linecap:round;stroke-linejoin:round;}.cls-5{fill:#fff;}.cls-6{stroke-width:2px;}</style></defs><g id="Layer_2" data-name="Layer 2"><g id="OBJECTS"><text class="cls-1" transform="translate(301.43 163.82)">Click</text><text class="cls-2" transform="translate(272.86 257.71)">&amp;</text><text class="cls-2" transform="translate(381.69 257.86)">Collect</text><path class="cls-3" d="M107.16,76.18C94.61,92.86,29.45-13.76,8.58,32.87c-10,22.27,42.31,66.62,39.1,84.06"/><polygon class="cls-4" points="223.29 243.91 150.19 62.57 21.56 84.99 23.96 93.56 21.56 84.99 14.51 98.72 0 97.1 15.12 306.76 83.95 307.69 223.29 243.91"/><path class="cls-5" d="M49.25,284.59c-1.71-7.69-3.28-15.42-4.92-23.12l-4.66-23.18c-3.11-15.45-6-30.93-9-46.41s-5.73-31-8.42-46.52l-4-23.3c-1.26-7.78-2.59-15.54-3.77-23.34,1.71,7.7,3.27,15.42,4.91,23.13L24.09,145c3.11,15.45,6,30.94,9,46.42s5.73,31,8.41,46.52l4,23.29C46.73,269,48.06,276.8,49.25,284.59Z"/><path class="cls-5" d="M15.12,306.76c2.58-2.26,5.28-4.32,8-6.31s5.56-3.9,8.39-5.77,5.72-3.63,8.67-5.32,5.92-3.33,9-4.77c-2.58,2.27-5.28,4.33-8,6.32s-5.56,3.9-8.39,5.77-5.73,3.63-8.67,5.32S18.23,305.33,15.12,306.76Z"/><path class="cls-5" d="M84,307.69c-3.16-1.52-6.2-3.23-9.19-5s-5.91-3.65-8.82-5.56-5.74-3.91-8.53-6-5.55-4.21-8.16-6.55c3.16,1.52,6.2,3.22,9.19,5s5.91,3.65,8.82,5.56,5.74,3.91,8.53,6S81.33,305.35,84,307.69Z"/><path class="cls-5" d="M21.56,85c2.86,9.21,5.57,18.46,8.36,27.68L38,140.42c5.41,18.5,10.64,37.05,15.87,55.6s10.34,37.13,15.33,55.75l7.48,27.93c2.41,9.33,4.9,18.64,7.24,28-2.86-9.21-5.57-18.45-8.36-27.68l-8.12-27.75c-5.41-18.5-10.64-37-15.86-55.6s-10.34-37.13-15.33-55.75L28.8,113C26.39,103.66,23.9,94.35,21.56,85Z"/><path class="cls-5" d="M58.28,97.49a7,7,0,1,0,8.46,5.23A7,7,0,0,0,58.28,97.49Zm2.44,10.35a3.6,3.6,0,1,1,2.68-4.33A3.59,3.59,0,0,1,60.72,107.84Z"/><path class="cls-5" d="M129.31,85.16a7,7,0,1,0,8.46,5.24A7,7,0,0,0,129.31,85.16Zm2.44,10.36a3.6,3.6,0,1,1,2.68-4.34A3.61,3.61,0,0,1,131.75,95.52Z"/><path class="cls-3" d="M59.89,104.34c20.62,3.18-7.13-118.65,40.37-99.82,22.68,9,16.19,77.23,30.66,87.49"/><path class="cls-5" d="M196.34,250.57l-4-.43A97.11,97.11,0,0,1,173,246c-5.5-1.76-10.12-3.18-13.83-4.32-15.64-4.8-17.65-5.42-17.65-10.64a7.2,7.2,0,0,1,7.17-7.17l14.09,2.18a.38.38,0,0,0,.33-.11.31.31,0,0,0,.07-.09.38.38,0,0,0-.07-.45l-37.32-37.32A7.17,7.17,0,0,1,135.91,178l16.41,16.41a.38.38,0,0,0,.55,0,.38.38,0,0,0,0-.54,7.18,7.18,0,0,1,0-10.15,7.19,7.19,0,0,1,10.14,0l5,5a.39.39,0,0,0,.55-.55A7.17,7.17,0,0,1,178.66,178l4.2,4.2a.38.38,0,0,0,.54,0,.36.36,0,0,0,0-.54,7.19,7.19,0,0,1,0-10.14,7.17,7.17,0,0,1,10.14,0l10.63,10.62A100.71,100.71,0,0,1,222,206.19l6.5,12.27Z"/><path class="cls-6" d="M126,178.24a6.8,6.8,0,0,1,9.6,0l16.41,16.41a.77.77,0,1,0,1.09-1.09,6.79,6.79,0,1,1,9.6-9.6l5,5a.77.77,0,0,0,1.09,0,.76.76,0,0,0,0-1.09,6.78,6.78,0,1,1,9.6-9.59l4.2,4.19a.76.76,0,0,0,1.09,0,.77.77,0,0,0,0-1.09,6.78,6.78,0,1,1,9.59-9.59l10.63,10.63a100.16,100.16,0,0,1,17.71,24l6.37,12L196.2,250.17l-3.81-.41a97,97,0,0,1-19.29-4.09c-5.5-1.77-10.13-3.19-13.84-4.33-15.9-4.88-17.37-5.47-17.37-10.27a6.79,6.79,0,0,1,6.73-6.78l14.08,2.17a.75.75,0,0,0,.66-.21.66.66,0,0,0,.14-.2.74.74,0,0,0-.14-.89L126,187.84a6.81,6.81,0,0,1,0-9.6m-.54-.55a7.56,7.56,0,0,0,0,10.69l37.32,37.32-14.14-2.18a7.56,7.56,0,0,0-7.56,7.55c0,6.84,3.58,6.28,31.74,15.33a97.92,97.92,0,0,0,19.45,4.13l4.18.44,32.44-32.44L222.29,206a101,101,0,0,0-17.85-24.17l-10.62-10.63a7.58,7.58,0,0,0-5.35-2.21,7.48,7.48,0,0,0-5.34,2.21,7.56,7.56,0,0,0,0,10.69l-4.2-4.2a7.46,7.46,0,0,0-5.34-2.21,7.55,7.55,0,0,0-5.34,12.89l-5-5a7.56,7.56,0,1,0-10.69,10.69L136.18,177.7a7.54,7.54,0,0,0-10.68,0Z"/><path class="cls-5" d="M209.88,258.84a3.53,3.53,0,0,1-5,0l-8.41-8.41,31.89-31.9L236.8,227a3.51,3.51,0,0,1,0,5Z"/><path class="cls-6" d="M228.38,219.08l8.14,8.14a3.14,3.14,0,0,1,0,4.43L209.6,258.57a3.14,3.14,0,0,1-4.43,0L197,250.43l31.35-31.35m0-1.09-32.44,32.44,8.69,8.69a3.91,3.91,0,0,0,5.52,0l26.92-26.92a3.92,3.92,0,0,0,0-5.53L228.38,218Z"/><path class="cls-6" d="M166.25,207.76h0a.77.77,0,0,1-1.09,0l-13-13,1.09-1.09,13.05,13A.77.77,0,0,1,166.25,207.76Z"/><path class="cls-6" d="M176.14,196.27h0a.77.77,0,0,1-1.09,0l-7.35-7.34,1.09-1.09,7.35,7.34A.77.77,0,0,1,176.14,196.27Z"/><path class="cls-6" d="M190.85,189.62h0a.77.77,0,0,1-1.09,0l-7.34-7.35,1.08-1.09,7.35,7.35A.77.77,0,0,1,190.85,189.62Z"/><polygon class="cls-5" points="118.41 171.81 95.11 159.81 106.41 148.51 118.41 171.81"/><polygon class="cls-5" points="145.77 171.81 157.77 148.51 169.06 159.81 145.77 171.81"/><polygon class="cls-5" points="118.41 199.16 106.41 222.46 95.11 211.17 118.41 199.16"/><polygon class="cls-5" points="132.09 164.43 124.1 139.47 140.08 139.47 132.09 164.43"/><polygon class="cls-5" points="111.04 185.49 86.08 193.47 86.08 177.5 111.04 185.49"/></g></g></svg>