<svg id="visual" viewBox="0 0 1400 600" width="1400" height="600" xmlns="http://www.w3.org/2000/svg" xmlns:xlink="http://www.w3.org/1999/xlink" version="1.1"><path d="M0 37L23.3 42C46.7 47 93.3 57 140 59C186.7 61 233.3 55 280 48C326.7 41 373.3 33 420 31C466.7 29 513.3 33 560 35C606.7 37 653.3 37 700 41C746.7 45 793.3 53 840 54C886.7 55 933.3 49 980 48C1026.7 47 1073.3 51 1120 50C1166.7 49 1213.3 43 1260 40C1306.7 37 1353.3 37 1376.7 37L1400 37L1400 0L1376.7 0C1353.3 0 1306.7 0 1260 0C1213.3 0 1166.7 0 1120 0C1073.3 0 1026.7 0 980 0C933.3 0 886.7 0 840 0C793.3 0 746.7 0 700 0C653.3 0 606.7 0 560 0C513.3 0 466.7 0 420 0C373.3 0 326.7 0 280 0C233.3 0 186.7 0 140 0C93.3 0 46.7 0 23.3 0L0 0Z" fill="#040404"></path><path d="M0 157L23.3 151C46.7 145 93.3 133 140 130C186.7 127 233.3 133 280 128C326.7 123 373.3 107 420 104C466.7 101 513.3 111 560 116C606.7 121 653.3 121 700 125C746.7 129 793.3 137 840 134C886.7 131 933.3 117 980 113C1026.7 109 1073.3 115 1120 116C1166.7 117 1213.3 113 1260 121C1306.7 129 1353.3 149 1376.7 159L1400 169L1400 35L1376.7 35C1353.3 35 1306.7 35 1260 38C1213.3 41 1166.7 47 1120 48C1073.3 49 1026.7 45 980 46C933.3 47 886.7 53 840 52C793.3 51 746.7 43 700 39C653.3 35 606.7 35 560 33C513.3 31 466.7 27 420 29C373.3 31 326.7 39 280 46C233.3 53 186.7 59 140 57C93.3 55 46.7 45 23.3 40L0 35Z" fill="#050505"></path><path d="M0 307L23.3 303C46.7 299 93.3 291 140 284C186.7 277 233.3 271 280 262C326.7 253 373.3 241 420 242C466.7 243 513.3 257 560 253C606.7 249 653.3 227 700 233C746.7 239 793.3 273 840 277C886.7 281 933.3 255 980 244C1026.7 233 1073.3 237 1120 246C1166.7 255 1213.3 269 1260 281C1306.7 293 1353.3 303 1376.7 308L1400 313L1400 167L1376.7 157C1353.3 147 1306.7 127 1260 119C1213.3 111 1166.7 115 1120 114C1073.3 113 1026.7 107 980 111C933.3 115 886.7 129 840 132C793.3 135 746.7 127 700 123C653.3 119 606.7 119 560 114C513.3 109 466.7 99 420 102C373.3 105 326.7 121 280 126C233.3 131 186.7 125 140 128C93.3 131 46.7 143 23.3 149L0 155Z" fill="#181818"></path><path d="M0 415L23.3 415C46.7 415 93.3 415 140 414C186.7 413 233.3 411 280 408C326.7 405 373.3 401 420 405C466.7 409 513.3 421 560 415C606.7 409 653.3 385 700 379C746.7 373 793.3 385 840 398C886.7 411 933.3 425 980 428C1026.7 431 1073.3 423 1120 424C1166.7 425 1213.3 435 1260 438C1306.7 441 1353.3 437 1376.7 435L1400 433L1400 311L1376.7 306C1353.3 301 1306.7 291 1260 279C1213.3 267 1166.7 253 1120 244C1073.3 235 1026.7 231 980 242C933.3 253 886.7 279 840 275C793.3 271 746.7 237 700 231C653.3 225 606.7 247 560 251C513.3 255 466.7 241 420 240C373.3 239 326.7 251 280 260C233.3 269 186.7 275 140 282C93.3 289 46.7 297 23.3 301L0 305Z" fill="#2b2b2b"></path><path d="M0 451L23.3 450C46.7 449 93.3 447 140 447C186.7 447 233.3 449 280 450C326.7 451 373.3 451 420 454C466.7 457 513.3 463 560 457C606.7 451 653.3 433 700 429C746.7 425 793.3 435 840 444C886.7 453 933.3 461 980 461C1026.7 461 1073.3 453 1120 455C1166.7 457 1213.3 469 1260 471C1306.7 473 1353.3 465 1376.7 461L1400 457L1400 431L1376.7 433C1353.3 435 1306.7 439 1260 436C1213.3 433 1166.7 423 1120 422C1073.3 421 1026.7 429 980 426C933.3 423 886.7 409 840 396C793.3 383 746.7 371 700 377C653.3 383 606.7 407 560 413C513.3 419 466.7 407 420 403C373.3 399 326.7 403 280 406C233.3 409 186.7 411 140 412C93.3 413 46.7 413 23.3 413L0 413Z" fill="#2b2b2b"></path><path d="M0 511L23.3 511C46.7 511 93.3 511 140 509C186.7 507 233.3 503 280 500C326.7 497 373.3 495 420 499C466.7 503 513.3 513 560 512C606.7 511 653.3 499 700 494C746.7 489 793.3 491 840 495C886.7 499 933.3 505 980 508C1026.7 511 1073.3 511 1120 512C1166.7 513 1213.3 515 1260 514C1306.7 513 1353.3 509 1376.7 507L1400 505L1400 455L1376.7 459C1353.3 463 1306.7 471 1260 469C1213.3 467 1166.7 455 1120 453C1073.3 451 1026.7 459 980 459C933.3 459 886.7 451 840 442C793.3 433 746.7 423 700 427C653.3 431 606.7 449 560 455C513.3 461 466.7 455 420 452C373.3 449 326.7 449 280 448C233.3 447 186.7 445 140 445C93.3 445 46.7 447 23.3 448L0 449Z" fill="#181818"></path><path d="M0 547L23.3 549C46.7 551 93.3 555 140 555C186.7 555 233.3 551 280 548C326.7 545 373.3 543 420 543C466.7 543 513.3 545 560 540C606.7 535 653.3 523 700 521C746.7 519 793.3 527 840 534C886.7 541 933.3 547 980 549C1026.7 551 1073.3 549 1120 550C1166.7 551 1213.3 555 1260 553C1306.7 551 1353.3 543 1376.7 539L1400 535L1400 503L1376.7 505C1353.3 507 1306.7 511 1260 512C1213.3 513 1166.7 511 1120 510C1073.3 509 1026.7 509 980 506C933.3 503 886.7 497 840 493C793.3 489 746.7 487 700 492C653.3 497 606.7 509 560 510C513.3 511 466.7 501 420 497C373.3 493 326.7 495 280 498C233.3 501 186.7 505 140 507C93.3 509 46.7 509 23.3 509L0 509Z" fill="#050505"></path><path d="M0 601L23.3 601C46.7 601 93.3 601 140 601C186.7 601 233.3 601 280 601C326.7 601 373.3 601 420 601C466.7 601 513.3 601 560 601C606.7 601 653.3 601 700 601C746.7 601 793.3 601 840 601C886.7 601 933.3 601 980 601C1026.7 601 1073.3 601 1120 601C1166.7 601 1213.3 601 1260 601C1306.7 601 1353.3 601 1376.7 601L1400 601L1400 533L1376.7 537C1353.3 541 1306.7 549 1260 551C1213.3 553 1166.7 549 1120 548C1073.3 547 1026.7 549 980 547C933.3 545 886.7 539 840 532C793.3 525 746.7 517 700 519C653.3 521 606.7 533 560 538C513.3 543 466.7 541 420 541C373.3 541 326.7 543 280 546C233.3 549 186.7 553 140 553C93.3 553 46.7 549 23.3 547L0 545Z" fill="#040404"></path></svg>